<mxfile host="app.diagrams.net" agent="Mozilla/5.0 (X11; Linux x86_64) AppleWebKit/537.36 (KHTML, like Gecko) Chrome/127.0.0.0 Safari/537.36" version="24.7.6">
  <diagram name="Page-1" id="MBQKcmfXcxB1Kgta13Re">
    <mxGraphModel dx="954" dy="604" grid="1" gridSize="10" guides="1" tooltips="1" connect="1" arrows="1" fold="1" page="1" pageScale="1" pageWidth="827" pageHeight="1169" math="0" shadow="0">
      <root>
        <mxCell id="0" />
        <mxCell id="1" parent="0" />
        <mxCell id="hQ1Gt9his5Axdr4BKXUr-31" value="" style="rounded=0;whiteSpace=wrap;html=1;dashed=1;dashPattern=8 8;" vertex="1" parent="1">
          <mxGeometry x="20" y="90" width="680" height="280" as="geometry" />
        </mxCell>
        <mxCell id="hQ1Gt9his5Axdr4BKXUr-1" value="1. kprobe/accept4" style="rounded=0;whiteSpace=wrap;html=1;" vertex="1" parent="1">
          <mxGeometry x="110" y="300" width="110" height="30" as="geometry" />
        </mxCell>
        <mxCell id="hQ1Gt9his5Axdr4BKXUr-2" value="2. kprobe/read" style="rounded=0;whiteSpace=wrap;html=1;" vertex="1" parent="1">
          <mxGeometry x="270" y="300" width="110" height="30" as="geometry" />
        </mxCell>
        <mxCell id="hQ1Gt9his5Axdr4BKXUr-3" value="3. kprobe/write" style="rounded=0;whiteSpace=wrap;html=1;" vertex="1" parent="1">
          <mxGeometry x="420" y="300" width="110" height="30" as="geometry" />
        </mxCell>
        <mxCell id="hQ1Gt9his5Axdr4BKXUr-4" value="4. kprobe/close" style="rounded=0;whiteSpace=wrap;html=1;" vertex="1" parent="1">
          <mxGeometry x="570" y="300" width="110" height="30" as="geometry" />
        </mxCell>
        <mxCell id="hQ1Gt9his5Axdr4BKXUr-6" value="S" style="ellipse;html=1;shape=startState;fillColor=#000000;strokeColor=#000000;" vertex="1" parent="1">
          <mxGeometry x="40" y="300" width="30" height="30" as="geometry" />
        </mxCell>
        <mxCell id="hQ1Gt9his5Axdr4BKXUr-8" value="ebpf.Stream (Go)" style="rounded=0;whiteSpace=wrap;html=1;" vertex="1" parent="1">
          <mxGeometry x="250" y="150" width="110" height="30" as="geometry" />
        </mxCell>
        <mxCell id="hQ1Gt9his5Axdr4BKXUr-10" value="TrayceGUI" style="shape=image;verticalLabelPosition=bottom;labelBackgroundColor=default;verticalAlign=top;aspect=fixed;imageAspect=0;image=data:image/png,iVBORw0KGgoAAAANSUhEUgAAALAAAAC1CAIAAABwGOK6AAAACXBIWXMAAB2HAAAdhwGP5fFlAAANRElEQVR4nO3d23Mb5RnH8efd1a4kS7IOiXyIFSUxDB0YnIBJQ1PbcTgEaNKSwISS6f/QO5hSAmlL25te9A/oBcOkhaENnU7b63bKDAVShtPUgEkojk9JkO3YVqzDSpG2F5I3fv2upZW077u7nud7G+M3Ib/Rx1JWKzIyMgIYtp7k9G8Ac1c4CIwKB4FR4SAwKhwERoWDwKhwEBgVDgKjwkFgVDgIjAoHgVHhIDAqHARGhYPAqHAQGBUOAqPCQWBUOAiMCgeBUeEgMCocBEaFg8CocBAYFQ4Co8JBYFQ4CIwKB4FR4SAwKhwERoWDwKhwEBgVDgKjwkFgVDgIjAoHgVHhIDAqHARGhYPAqHAQGBUOAqPCQWBUOAiMyslBKEQfT+WPDORkoos/XU7Ew0cOS91h8UeDLAWH7gl8604gxIHTGyan02lHDlaI/sTg2rnRuUcGV65ng9NZtaKL+78jJ+I7Tz+ZePSoHOvWpmf1QlHY0QAQOjTc88NT4QcOlBYWy9czIo9ummODGEsVzo3OQawA/spYsnBlJTi1qgCI2ATxq8kzT4eH90uKT+1LkkCwOD2tayUBRwNA8N67e549pexIyMGAP72rlFm4tbAk5mgrOTAIhehjqfyvj01BRAMCQAACt47uyc4uhaazis55E3IinjzzdOTg/ZJPBgCQpMDulJLckb/8ta5pXI8GWQodGu559pQvESeEAIAcCgXu3FdeWXHP44ToQShEf2Iwe250vr6GWgRAqR7tW+NtR02K8PD++hoACCFEImp/r9Qd5m1H6NBw8qkTyo4EWf/RgRDiC3UF79jnHjtED2IslT83Og+xgskDAWc7bkvh823+JUJ422FIwf6Sq+wQN4jNUrDxtGOzFGz87GCkMPkS19ghaBCKpH+PlYKNjx2sFCYnc7ODlcL0dJfYIWgQRwbyL49tIQWbrXY0kMLki+22o4EUbG6wg/sgFEk/MpD/1WNTEG742LAx++xoLgWbXXZYkMLkP3LaDr6DUCT9+L7sy2PzLayhlh12WJHC5GSb7LAihenpztrBdxDjA/mXxuYhak0Ktk7s8Ks7zzwVGT5gRQq2Du1oSQo2B+3gNQhF0scH8r9sSQq2du2QErGdZ56KHry/vTWsf5e27GhLCpNv45AdXAahSPqJfdmX2pCCrXU7pEQsefpk248Nt09uy472pDA93RE7uAzi6ED+bCdSsFm3ozMp2Fqyo0Mp2MTbYfMgVEkfH8i/0qEUbNbssEcKk+9rwQ6bpDD5xmLtsHMQqqQf35c9a4sUbM3ssEsKk5Mt2GGXFKani7TDzkGM2y4F21Z22C0FWwM7bJeCTZgd9gyClxRsZnbwkoKNtYObFGxi7LBhEOtSzEK4JOICF9oOPR7nJIXJyYwd/KQwPV2AHTYMYnwgf3ZsFqKcHxs25a+MJQvTheja8WfDQtZgZNghRULJk8e5SsHG246OLrJVJf3hVO6Vx6ZEr6GWvzwQByURJ5LoS4WJ5FMSMbWvVwoEBB8NAGpvb/JHz3QN7+dxjW77jxCipdhU0Xf+PwNvTnStfjWr7upT+BO+sfzkpaULf1374OOqXg2kd0uqKuxoMOy4k4sd7Q/CGSlqVcmb76fOT8ZzZam6ltPmrqqpXb54TMwmCjNzC7//U+nqdQAozV3TJQjsTkmKIuDojXGyo51BbHhOIfyxQQco+t58P/W7iUSxUpeisprNf/5lYHCvLxblugm9Us1PXjLWAABQqRT/d6VS1IJ37HFgExyed7Q8COeluDhwfjJurKGWXiwWp6Z525GfvLT4x7/cXkP9bF27MlOtOmeHrc87Wh6ES6Qw+UXOdmyUgm3b2NHCINwmBRsnO0ykMDl7m9hhdRCqpJ9wnxRsPOwwl8Lk7O1gh9VBuFYKky+31Y7GUrB53Y7mg1Al/aFU/hculoLNFjssSWFytrftaDIIVdJPDGZfHHW7FGyd22FVCpOzPWxHk0E8lMq/OOoNKUy+QQd2tCoFm0ft2HIQNSl+fsxLUrC1YUebUpic7Uk7zAehSvr3B7M/9aAUbK3a0b4UJmd7zw7zQTySyr0wOudRKUy+pWU7OpeCzVt2bB6EKumPpHLnjl3xtBRsTe2wTQqTs71kBzUIVdJ/MJh9YXRuG0jB1tgOO6UwOdszdlCD2GZSmByyhR08pGDzhB31QaiS/ujubSgF2yY7OEphcrYH7JDT6bQq6U/ekf3JNpWCbaMd+S8vc5TC5Gy32yGn0+mRXYWzY7PQ7YQUAH++mHrtC75SsNXsCEnaN3//h7g1rFeauwY+OZBOEYHXBteSgwF/ql+7ev3W0rLpF0gAMHvTt3gzAALvG7qxA325qFIFEHozW5VUnw5+9gf9tw/5v1KE30dXCnX5+3uJ2EeIWrqulxdvlBdvbPUFcjqdXtGkiYWu+yLl7lhR/INEIlq8O1yZyARXSpKYG5cCwOm7Vn98eB66C+P9a5mbwalVcffRlbrDyWdORh64T/zF4nq1mp+8tPj6W1s9PMD6D5UkU5A/Xeh6vLeohAXd0PV2EvTEivdEqv+aiWhVEX8rj+/NPT86C5ESAIBaGUkWZrLBr1dE3EdX6g4nTh6PPniQyC3c1MaWdF3PT15avPC35j9UAgAAuVGU37saHk2UusT/aCnpOxP5b0crH1wL3SwTfn8xqqSfvmv1+Y0vyRMA/63xdHZ+OTSzqlR5/snlRDz5zMnogwdBkkS+aQAAdF3PTXyx+PqFpi9FbHwdgtwoyhMLXQci5ah4OwjsiBV421GXIkIvngD4qrztqEtx8H4iy6LXUJfiQoMfHYw2vXRNMgX5k0zXY72aGuZ842c2znZQUrDxtMP9Uhix/7hFljX5vfnQdxOlcGSb2GEiBRs3OzwhhZHpv3aSZU2eWOjaH6nELN5q1MY42GEuhdnRttvhFSmMtrpAhiwU5E8zwW1gRxMp2Oyzw0NSGDW4hM7zdliSgs0mO7wlhVHjayrX7Qh70g6rUpgd3aEdnpPCqOll+Ot29GhqxEt2tCwFW7t2eFEKIytv1CHLmvzeVc/Y0aYUbG3Z4VEpjCy+c6tux5AX7GhfCrOjW7LDu1IYWX+zL1koyJ9kgo/2aH4X22GDFGzW7PC0FEYt3Q6gbsdhV9phmxRsFuzwuhRGrd4fwr122CmF2dEN7NgGUhi1cUshN9rBRQo2Mzu2hxRG7d10zEV2qBLwkoKNsWPbSGHU9l3o3GLHsb1rHKUwO9qwYwYS8dPbRAqjTu5k6/xrVntU+dQ9GegWfpWXWnkgWv5i6Mlbh444IkXu80tLb9kphVGHtzYmy5r8riN2VGFuLvqbD3pyBf9Qzxr4eH9mOF1BOf9Jzz8/Kvr2cb8X4qbqUrxhsxRGnd/r2hk75mZiL7+z6/Ky/7NFv++WMpTMgY/r9W8b0uRXLw68/nm8kNOKU9Nqf6+yQ9B9dPlJYWTLxyOIft6Rvx557u3U5WU/AJR18uVygJTUoVS2szt3W0uTL3y467WJRO05TnUtp81fU1P9Au6jy+M5BZtdH6Ai6nlHFeZmYs+9nbq8rBpP/LQK+TAT8Jf425FXXr048NpEolgB4/T19wbu4WoHp+cUbDZ+oo4IOwwpNr0qpQPhbse6FFp18+uk9fcGcrNDgBRG9n4IW82OLk52bJSCja8dtBRs/OwQI4WR7R/TWLMjfDhRDkfse7OomRRsvOwwk4KNhx3CpDDi8rmdy5r8X1uvs9pKCjb77dhaCpPTbbVDpBRGvD7qebHgs8uOxlKw2WlHMynY7LJDsBRGHD8M3gY7rEnBZo8d1qRg69wO8VIYcRwEdGyHdSnYOrWjFSlMTu/ADkekMOI7CABYLPg+znQ93KMFWrSjVSnY2rejdSnY2rPDKSmMuA8CAFY0+d2r4e/EyxGLdrQrBVs7drQrBVurdjgohZGIQQDAiiZ/mukaClfi8eZ2dCIFW2t2dCaFyemW7XBWCiNBgwCApaIlOzqXgs2qHXZIwWbFDselMBI3CKjZMb+1HfZJwdbcDvukYGtshxukMBI6CDDsiFTjzPMOe6Vga2SH3VKYnL6FHS6Rwkj0IKBuR/DhntJGO3hIwWZuBx8p2Fg73COFkQODgPrzjlDdDp2jFGyb7ShwlIJtox0A4B4pjJwZBKzbcW+4ejMb/Nm/+/lJwXbbju7yqx/1cZXC5PSaHX09pW8yi2+85RIpjMjIyIiDx+/tLgHAlawDt/DsVquDUW1yKVAUci9EKkKUnTuq1Upl6/tFOpXDg8DcluibqWIuDweBUeEgMCocBEaFg8CocBAYFQ4Co8JBYFQ4CIwKB4FR4SAwKhwERoWDwKhwEBgVDgKjwkFgVDgIjAoHgVHhIDAqHARGhYPAqHAQGBUOAqPCQWBUOAiMCgeBUeEgMCocBEaFg8CocBAYFQ4Co8JBYFQ4CIwKB4FR4SAwKhwERoWDwKhwEBgVDgKjwkFgVDgIjAoHgVHhIDAqHARGhYPAqHAQGBUOAqPCQWBUOAiMCgeBUeEgMCocBEblk2XZ6d8D5qL+D6ZaE5DY79NXAAAAAElFTkSuQmCC;" vertex="1" parent="1">
          <mxGeometry x="740" y="135" width="58.34" height="60" as="geometry" />
        </mxCell>
        <mxCell id="hQ1Gt9his5Axdr4BKXUr-14" value="" style="endArrow=classic;html=1;rounded=0;entryX=0;entryY=0.5;entryDx=0;entryDy=0;exitX=1;exitY=0.5;exitDx=0;exitDy=0;dashed=1;dashPattern=1 1;" edge="1" parent="1" source="hQ1Gt9his5Axdr4BKXUr-6" target="hQ1Gt9his5Axdr4BKXUr-1">
          <mxGeometry width="50" height="50" relative="1" as="geometry">
            <mxPoint x="70" y="320" as="sourcePoint" />
            <mxPoint x="120" y="270" as="targetPoint" />
          </mxGeometry>
        </mxCell>
        <mxCell id="hQ1Gt9his5Axdr4BKXUr-18" value="" style="endArrow=classic;html=1;rounded=0;exitX=0.5;exitY=0;exitDx=0;exitDy=0;entryX=0.218;entryY=1.047;entryDx=0;entryDy=0;entryPerimeter=0;dashed=1;dashPattern=1 1;" edge="1" parent="1" source="hQ1Gt9his5Axdr4BKXUr-1" target="hQ1Gt9his5Axdr4BKXUr-8">
          <mxGeometry width="50" height="50" relative="1" as="geometry">
            <mxPoint x="180" y="270" as="sourcePoint" />
            <mxPoint x="250" y="220" as="targetPoint" />
            <Array as="points">
              <mxPoint x="165" y="220" />
              <mxPoint x="274" y="220" />
            </Array>
          </mxGeometry>
        </mxCell>
        <mxCell id="hQ1Gt9his5Axdr4BKXUr-19" value="" style="endArrow=classic;html=1;rounded=0;exitX=0.5;exitY=0;exitDx=0;exitDy=0;entryX=0.4;entryY=1.053;entryDx=0;entryDy=0;dashed=1;dashPattern=1 1;entryPerimeter=0;" edge="1" parent="1" source="hQ1Gt9his5Axdr4BKXUr-2" target="hQ1Gt9his5Axdr4BKXUr-8">
          <mxGeometry width="50" height="50" relative="1" as="geometry">
            <mxPoint x="175" y="310" as="sourcePoint" />
            <mxPoint x="277" y="191" as="targetPoint" />
            <Array as="points">
              <mxPoint x="325" y="240" />
              <mxPoint x="294" y="240" />
            </Array>
          </mxGeometry>
        </mxCell>
        <mxCell id="hQ1Gt9his5Axdr4BKXUr-20" value="" style="endArrow=classic;html=1;rounded=0;exitX=0.5;exitY=0;exitDx=0;exitDy=0;entryX=0.631;entryY=1.047;entryDx=0;entryDy=0;dashed=1;dashPattern=1 1;entryPerimeter=0;" edge="1" parent="1" source="hQ1Gt9his5Axdr4BKXUr-3" target="hQ1Gt9his5Axdr4BKXUr-8">
          <mxGeometry width="50" height="50" relative="1" as="geometry">
            <mxPoint x="345" y="298" as="sourcePoint" />
            <mxPoint x="310" y="180" as="targetPoint" />
            <Array as="points">
              <mxPoint x="475" y="230" />
              <mxPoint x="320" y="230" />
            </Array>
          </mxGeometry>
        </mxCell>
        <mxCell id="hQ1Gt9his5Axdr4BKXUr-21" value="" style="endArrow=classic;html=1;rounded=0;exitX=0.5;exitY=0;exitDx=0;exitDy=0;entryX=0.865;entryY=1.013;entryDx=0;entryDy=0;dashed=1;dashPattern=1 1;entryPerimeter=0;" edge="1" parent="1" source="hQ1Gt9his5Axdr4BKXUr-4" target="hQ1Gt9his5Axdr4BKXUr-8">
          <mxGeometry width="50" height="50" relative="1" as="geometry">
            <mxPoint x="485" y="310" as="sourcePoint" />
            <mxPoint x="320" y="190" as="targetPoint" />
            <Array as="points">
              <mxPoint x="625" y="220" />
              <mxPoint x="345" y="220" />
            </Array>
          </mxGeometry>
        </mxCell>
        <mxCell id="hQ1Gt9his5Axdr4BKXUr-25" value="&lt;font style=&quot;font-size: 11px;&quot;&gt;ConnectEvent&lt;/font&gt;" style="text;html=1;align=left;verticalAlign=middle;whiteSpace=wrap;rounded=0;fontSize=9;" vertex="1" parent="1">
          <mxGeometry x="170" y="250" width="90" height="30" as="geometry" />
        </mxCell>
        <mxCell id="hQ1Gt9his5Axdr4BKXUr-26" value="&lt;font style=&quot;font-size: 11px;&quot;&gt;DataEvent&lt;/font&gt;" style="text;html=1;align=center;verticalAlign=middle;whiteSpace=wrap;rounded=0;fontSize=9;" vertex="1" parent="1">
          <mxGeometry x="360" y="250" width="90" height="30" as="geometry" />
        </mxCell>
        <mxCell id="hQ1Gt9his5Axdr4BKXUr-27" value="&lt;font style=&quot;font-size: 11px;&quot;&gt;CloseEvent&lt;/font&gt;" style="text;html=1;align=left;verticalAlign=middle;whiteSpace=wrap;rounded=0;fontSize=9;" vertex="1" parent="1">
          <mxGeometry x="565" y="250" width="90" height="30" as="geometry" />
        </mxCell>
        <mxCell id="hQ1Gt9his5Axdr4BKXUr-28" value="" style="endArrow=classic;html=1;rounded=0;exitX=1.025;exitY=0.527;exitDx=0;exitDy=0;exitPerimeter=0;entryX=0;entryY=0.5;entryDx=0;entryDy=0;dashed=1;dashPattern=1 1;" edge="1" parent="1" source="hQ1Gt9his5Axdr4BKXUr-8" target="hQ1Gt9his5Axdr4BKXUr-9">
          <mxGeometry width="50" height="50" relative="1" as="geometry">
            <mxPoint x="400" y="180" as="sourcePoint" />
            <mxPoint x="450" y="130" as="targetPoint" />
          </mxGeometry>
        </mxCell>
        <mxCell id="hQ1Gt9his5Axdr4BKXUr-29" value="" style="endArrow=classic;html=1;rounded=0;exitX=1.025;exitY=0.527;exitDx=0;exitDy=0;exitPerimeter=0;entryX=0;entryY=0.5;entryDx=0;entryDy=0;dashed=1;dashPattern=1 1;" edge="1" parent="1" source="hQ1Gt9his5Axdr4BKXUr-9" target="hQ1Gt9his5Axdr4BKXUr-10">
          <mxGeometry width="50" height="50" relative="1" as="geometry">
            <mxPoint x="570" y="165.5" as="sourcePoint" />
            <mxPoint x="647" y="164.5" as="targetPoint" />
          </mxGeometry>
        </mxCell>
        <mxCell id="hQ1Gt9his5Axdr4BKXUr-30" value="&lt;font style=&quot;font-size: 11px;&quot;&gt;GRPC&lt;/font&gt;" style="text;html=1;align=center;verticalAlign=middle;whiteSpace=wrap;rounded=0;" vertex="1" parent="1">
          <mxGeometry x="630" y="139" width="60" height="30" as="geometry" />
        </mxCell>
        <mxCell id="hQ1Gt9his5Axdr4BKXUr-32" value="&lt;font size=&quot;1&quot; style=&quot;&quot;&gt;&lt;b style=&quot;font-size: 12px;&quot;&gt;TrayceAgent&lt;/b&gt;&lt;/font&gt;" style="text;html=1;align=left;verticalAlign=middle;whiteSpace=wrap;rounded=0;fontSize=9;" vertex="1" parent="1">
          <mxGeometry x="24" y="88" width="90" height="30" as="geometry" />
        </mxCell>
        <mxCell id="hQ1Gt9his5Axdr4BKXUr-37" value="" style="endArrow=classic;html=1;rounded=0;exitX=1.025;exitY=0.527;exitDx=0;exitDy=0;exitPerimeter=0;entryX=0;entryY=0.5;entryDx=0;entryDy=0;dashed=1;dashPattern=1 1;" edge="1" parent="1" target="hQ1Gt9his5Axdr4BKXUr-9">
          <mxGeometry width="50" height="50" relative="1" as="geometry">
            <mxPoint x="570" y="165.5" as="sourcePoint" />
            <mxPoint x="740" y="165" as="targetPoint" />
          </mxGeometry>
        </mxCell>
        <mxCell id="hQ1Gt9his5Axdr4BKXUr-9" value="sockets.SocketMap (Go)" style="rounded=0;whiteSpace=wrap;html=1;" vertex="1" parent="1">
          <mxGeometry x="450" y="150" width="160" height="30" as="geometry" />
        </mxCell>
      </root>
    </mxGraphModel>
  </diagram>
</mxfile>
